<svg width="30" height="30" viewBox="0 0 30 30" fill="none" xmlns="http://www.w3.org/2000/svg">
<circle opacity="0.1" cx="15" cy="15" r="15" fill="#FF7474"/>
<path d="M11.25 21.5C10.8375 21.5 10.4845 21.3533 10.191 21.0598C9.8975 20.7663 9.7505 20.413 9.75 20V10.25H9V8.75H12.75V8H17.25V8.75H21V10.25H20.25V20C20.25 20.4125 20.1033 20.7658 19.8098 21.0598C19.5163 21.3538 19.163 21.5005 18.75 21.5H11.25ZM18.75 10.25H11.25V20H18.75V10.25ZM12.75 18.5H14.25V11.75H12.75V18.5ZM15.75 18.5H17.25V11.75H15.75V18.5Z" fill="#FF4141"/>
</svg>
