<svg width="29" height="29" viewBox="0 0 29 29" fill="none" xmlns="http://www.w3.org/2000/svg">
<path fill-rule="evenodd" clip-rule="evenodd" d="M18.8328 2.41663C19.4736 2.41676 20.0882 2.67146 20.5413 3.12471L24.6666 7.24996C25.1198 7.70307 25.3745 8.31765 25.3747 8.95854V19.3333C25.3747 19.9742 25.1201 20.5889 24.6668 21.0421C24.2136 21.4953 23.5989 21.75 22.958 21.75H20.5413V24.1666C20.5413 24.8076 20.2867 25.4223 19.8335 25.8755C19.3803 26.3287 18.7656 26.5833 18.1247 26.5833H7.24967C6.60873 26.5833 5.99405 26.3287 5.54083 25.8755C5.08762 25.4223 4.83301 24.8076 4.83301 24.1666V9.66663C4.83301 9.02569 5.08762 8.411 5.54083 7.95778C5.99405 7.50457 6.60873 7.24996 7.24967 7.24996H9.66634V4.83329C9.66634 4.19235 9.92095 3.57766 10.3742 3.12445C10.8274 2.67124 11.4421 2.41663 12.083 2.41663H18.8328ZM9.66634 9.66663H7.24967V24.1666H18.1247V21.75H12.083C11.4421 21.75 10.8274 21.4953 10.3742 21.0421C9.92095 20.5889 9.66634 19.9742 9.66634 19.3333V9.66663ZM16.9163 4.83329H12.083V19.3333H22.958V10.875H18.7288C18.2783 10.8749 17.8439 10.7071 17.5103 10.4042C17.1768 10.1012 16.9681 9.68494 16.9248 9.23646L16.9163 9.06246V4.83329ZM19.333 5.33354V8.45829H22.4578L19.333 5.33354Z" fill="white"/>
</svg>
