<svg width="30" height="30" viewBox="0 0 30 30" fill="none" xmlns="http://www.w3.org/2000/svg">
<circle opacity="0.1" cx="15" cy="15" r="15" fill="#EBF2FE"/>
<path d="M17 17.7502L13.6667 21H22V17.7502H17ZM14.55 10.5924L7 17.9533V21H10.125L17.675 13.6391L14.55 10.5924ZM9.43333 19.3751H8.66667V18.6276L14.55 12.8754L15.3333 13.6391L9.43333 19.3751ZM20.0917 11.283C20.4167 10.9661 20.4167 10.438 20.0917 10.1374L18.1417 8.23626C17.9855 8.08494 17.7743 8 17.5542 8C17.334 8 17.1228 8.08494 16.9667 8.23626L15.4417 9.72306L18.5667 12.7698L20.0917 11.283Z" fill="black"/>
</svg>
