<?xml version="1.0" encoding="iso-8859-1"?>
<!-- Uploaded to: SVG Repo, www.svgrepo.com, Generator: SVG Repo Mixer Tools -->
<svg fill="#000000" height="800px" width="800px" version="1.1" id="Layer_1" xmlns="http://www.w3.org/2000/svg" xmlns:xlink="http://www.w3.org/1999/xlink" 
	 viewBox="0 0 512 512" xml:space="preserve">
<g>
	<g>
		<g>
			<path d="M350.17,0H64v512h384V97.83L350.17,0z M405.333,469.333H106.667V42.667h225.83l72.837,72.837V469.333z"/>
			<path d="M298.667,128c0,11.782,9.551,21.333,21.333,21.333h21.333c11.782,0,21.333-9.551,21.333-21.333
				c0-11.782-9.551-21.333-21.333-21.333H320C308.218,106.667,298.667,116.218,298.667,128z"/>
			<path d="M341.333,192H320c-11.782,0-21.333,9.551-21.333,21.333c0,11.782,9.551,21.333,21.333,21.333h21.333
				c11.782,0,21.333-9.551,21.333-21.333C362.667,201.551,353.115,192,341.333,192z"/>
			<path d="M341.333,277.333H170.667c-11.782,0-21.333,9.551-21.333,21.333c0,11.782,9.551,21.333,21.333,21.333h170.667
				c11.782,0,21.333-9.551,21.333-21.333C362.667,286.885,353.115,277.333,341.333,277.333z"/>
			<path d="M341.333,362.667H170.667c-11.782,0-21.333,9.551-21.333,21.333c0,11.782,9.551,21.333,21.333,21.333h170.667
				c11.782,0,21.333-9.551,21.333-21.333C362.667,372.218,353.115,362.667,341.333,362.667z"/>
			<path d="M161.126,232.414c10.538,5.269,23.353,0.998,28.622-9.541l23.586-47.171l23.586,47.171
				c5.269,10.538,18.083,14.81,28.622,9.541s14.81-18.083,9.541-28.622l-42.667-85.333c-0.071-0.143-0.159-0.272-0.233-0.413
				c-0.19-0.36-0.39-0.713-0.6-1.062c-0.159-0.263-0.32-0.523-0.489-0.777c-0.214-0.323-0.439-0.637-0.671-0.949
				c-0.193-0.26-0.388-0.516-0.592-0.765c-0.23-0.281-0.471-0.554-0.716-0.824c-0.231-0.254-0.463-0.505-0.704-0.746
				c-0.242-0.242-0.493-0.474-0.748-0.706c-0.27-0.245-0.542-0.485-0.823-0.715c-0.249-0.204-0.506-0.399-0.766-0.593
				c-0.311-0.232-0.625-0.456-0.948-0.67c-0.255-0.169-0.515-0.331-0.779-0.49c-0.348-0.21-0.701-0.409-1.06-0.599
				c-0.141-0.074-0.27-0.162-0.414-0.234c-0.135-0.068-0.275-0.116-0.411-0.18c-0.35-0.166-0.704-0.319-1.062-0.465
				c-0.315-0.129-0.629-0.254-0.947-0.367c-0.316-0.112-0.635-0.212-0.956-0.309c-0.361-0.109-0.721-0.215-1.083-0.305
				c-0.293-0.072-0.589-0.131-0.885-0.19c-0.385-0.077-0.768-0.153-1.154-0.208c-0.302-0.044-0.605-0.072-0.908-0.103
				c-0.374-0.038-0.747-0.075-1.121-0.092c-0.337-0.016-0.675-0.015-1.014-0.015c-0.339,0-0.676-0.001-1.013,0.015
				c-0.374,0.018-0.747,0.055-1.121,0.092c-0.304,0.031-0.607,0.059-0.908,0.103c-0.386,0.056-0.769,0.131-1.154,0.208
				c-0.296,0.06-0.592,0.118-0.885,0.19c-0.363,0.089-0.723,0.195-1.083,0.305c-0.321,0.097-0.64,0.197-0.956,0.309
				c-0.318,0.113-0.632,0.238-0.947,0.367c-0.358,0.146-0.712,0.3-1.062,0.465c-0.136,0.065-0.276,0.112-0.411,0.18
				c-0.143,0.072-0.272,0.159-0.413,0.233c-0.359,0.189-0.712,0.389-1.061,0.599c-0.264,0.159-0.523,0.32-0.778,0.489
				c-0.323,0.214-0.637,0.438-0.949,0.67c-0.26,0.193-0.517,0.389-0.766,0.592c-0.281,0.23-0.553,0.47-0.823,0.715
				c-0.254,0.231-0.506,0.463-0.747,0.705s-0.474,0.493-0.705,0.747c-0.245,0.27-0.485,0.542-0.715,0.823
				c-0.204,0.249-0.399,0.506-0.592,0.766c-0.232,0.311-0.456,0.626-0.67,0.949c-0.169,0.254-0.33,0.514-0.489,0.778
				c-0.21,0.349-0.41,0.702-0.599,1.061c-0.074,0.141-0.162,0.27-0.233,0.413l-42.667,85.333
				C146.316,214.331,150.588,227.145,161.126,232.414z"/>
		</g>
	</g>
</g>
</svg>