<svg width="30" height="30" viewBox="0 0 30 30" fill="none" xmlns="http://www.w3.org/2000/svg">
<circle opacity="0.1" cx="15" cy="15" r="15" fill="#EBF2FE"/>
<path d="M14.1 19.5H15.9V14.1H14.1V19.5ZM15 12.3C15.255 12.3 15.4689 12.2136 15.6417 12.0408C15.8145 11.868 15.9006 11.6544 15.9 11.4C15.8994 11.1456 15.813 10.932 15.6408 10.7592C15.4686 10.5864 15.255 10.5 15 10.5C14.745 10.5 14.5314 10.5864 14.3592 10.7592C14.187 10.932 14.1006 11.1456 14.1 11.4C14.0994 11.6544 14.1858 11.8683 14.3592 12.0417C14.5326 12.2151 14.7462 12.3012 15 12.3ZM15 24C13.755 24 12.585 23.7636 11.49 23.2908C10.395 22.818 9.4425 22.1769 8.6325 21.3675C7.8225 20.5581 7.1814 19.6056 6.7092 18.51C6.237 17.4144 6.0006 16.2444 6 15C5.9994 13.7556 6.2358 12.5856 6.7092 11.49C7.1826 10.3944 7.8237 9.4419 8.6325 8.6325C9.4413 7.8231 10.3938 7.182 11.49 6.7092C12.5862 6.2364 13.7562 6 15 6C16.2438 6 17.4138 6.2364 18.51 6.7092C19.6062 7.182 20.5587 7.8231 21.3675 8.6325C22.1763 9.4419 22.8177 10.3944 23.2917 11.49C23.7657 12.5856 24.0018 13.7556 24 15C23.9982 16.2444 23.7618 17.4144 23.2908 18.51C22.8198 19.6056 22.1787 20.5581 21.3675 21.3675C20.5563 22.1769 19.6038 22.8183 18.51 23.2917C17.4162 23.7651 16.2462 24.0012 15 24ZM15 22.2C17.01 22.2 18.7125 21.5025 20.1075 20.1075C21.5025 18.7125 22.2 17.01 22.2 15C22.2 12.99 21.5025 11.2875 20.1075 9.8925C18.7125 8.4975 17.01 7.8 15 7.8C12.99 7.8 11.2875 8.4975 9.8925 9.8925C8.4975 11.2875 7.8 12.99 7.8 15C7.8 17.01 8.4975 18.7125 9.8925 20.1075C11.2875 21.5025 12.99 22.2 15 22.2Z" fill="black"/>
</svg>
