<svg width="29" height="29" viewBox="0 0 29 29" fill="none" xmlns="http://www.w3.org/2000/svg">
<path d="M3.73036 10.875H25.2701C25.4373 10.8749 25.6027 10.9095 25.7558 10.9767C25.9089 11.0438 26.0464 11.1419 26.1596 11.2649C26.2729 11.3879 26.3593 11.5331 26.4136 11.6912C26.4678 11.8494 26.4887 12.017 26.4748 12.1836L25.4683 24.267C25.4431 24.5691 25.3053 24.8508 25.0821 25.056C24.8589 25.2613 24.5668 25.3751 24.2636 25.375H4.7369C4.43391 25.3748 4.14204 25.2608 3.91913 25.0556C3.69622 24.8504 3.55855 24.5689 3.5334 24.267L2.52565 12.1836C2.51178 12.017 2.53262 11.8494 2.58688 11.6912C2.64113 11.5331 2.7276 11.3879 2.84083 11.2649C2.95406 11.1419 3.09158 11.0438 3.24469 10.9767C3.39781 10.9095 3.56318 10.8749 3.73036 10.875ZM5.84857 22.9583H23.1519L23.9579 13.2917H5.04382L5.84857 22.9583ZM16.2088 6.04167H24.1669C24.4874 6.04167 24.7947 6.16897 25.0213 6.39558C25.2479 6.62219 25.3752 6.92953 25.3752 7.25V8.45833H3.62524V4.83333C3.62524 4.51286 3.75254 4.20552 3.97915 3.97891C4.20576 3.75231 4.5131 3.625 4.83357 3.625H13.7922L16.2088 6.04167Z" fill="white"/>
</svg>
