<svg width="30" height="30" viewBox="0 0 30 30" fill="none" xmlns="http://www.w3.org/2000/svg">
<circle opacity="0.1" cx="15" cy="15" r="15" fill="#EBF2FE"/>
<path d="M19.5 18.0161C18.8667 18.0161 18.3 18.2721 17.8667 18.6732L11.925 15.1315C11.9667 14.9352 12 14.739 12 14.5341C12 14.3293 11.9667 14.133 11.925 13.9367L17.8 10.4292C18.25 10.8559 18.8417 11.1205 19.5 11.1205C20.8833 11.1205 22 9.97691 22 8.56024C22 7.14357 20.8833 6 19.5 6C18.1167 6 17 7.14357 17 8.56024C17 8.76506 17.0333 8.96135 17.075 9.15763L11.2 12.6652C10.75 12.2385 10.1583 11.9739 9.5 11.9739C8.11667 11.9739 7 13.1175 7 14.5341C7 15.9508 8.11667 17.0944 9.5 17.0944C10.1583 17.0944 10.75 16.8298 11.2 16.4031L17.1333 19.9533C17.0917 20.1325 17.0667 20.3203 17.0667 20.508C17.0667 21.882 18.1583 23 19.5 23C20.8417 23 21.9333 21.882 21.9333 20.508C21.9333 19.134 20.8417 18.0161 19.5 18.0161Z" fill="black"/>
</svg>
